<svg xmlns="http://www.w3.org/2000/svg" viewBox="0 0 800 600">
  <defs>
    <linearGradient id="g" x1="0" y1="0" x2="1" y2="1">
      <stop offset="0" stop-color="#EFF7FE"/>
      <stop offset="1" stop-color="#D6EAFA"/>
    </linearGradient>
  </defs>
  <rect width="800" height="600" fill="url(#g)"/>
  <g stroke="#B7D9F5" stroke-width="6" stroke-linecap="round" transform="translate(115 105) rotate(-12)">
    <line x1="-22" y1="0" x2="22" y2="0"/><line x1="-11" y1="-19" x2="11" y2="19"/><line x1="-11" y1="19" x2="11" y2="-19"/>
  </g>
  <g stroke="#B7D9F5" stroke-width="5" stroke-linecap="round" transform="translate(688 478) rotate(22) scale(.8)">
    <line x1="-22" y1="0" x2="22" y2="0"/><line x1="-11" y1="-19" x2="11" y2="19"/><line x1="-11" y1="19" x2="11" y2="-19"/>
  </g>
  <circle cx="400" cy="300" r="155" fill="#FFFFFF" opacity=".7"/>
  <g transform="translate(400 300)" stroke="#1B66C2" stroke-width="13" fill="none" stroke-linecap="round" stroke-linejoin="round">
    <path d="M0 -84 C 72 -52 78 40 4 86 C -70 46 -76 -44 0 -84 Z"/>
    <path d="M2 -54 L2 60"/>
    <path d="M2 -16 L-28 -40"/>
    <path d="M2 18 L30 -4"/>
  </g>
</svg>
