<svg xmlns="http://www.w3.org/2000/svg" viewBox="0 0 800 600">
  <defs>
    <linearGradient id="g" x1="0" y1="0" x2="1" y2="1">
      <stop offset="0" stop-color="#EFF7FE"/>
      <stop offset="1" stop-color="#D6EAFA"/>
    </linearGradient>
  </defs>
  <rect width="800" height="600" fill="url(#g)"/>
  <g stroke="#B7D9F5" stroke-width="6" stroke-linecap="round" transform="translate(110 110) rotate(15)">
    <line x1="-22" y1="0" x2="22" y2="0"/><line x1="-11" y1="-19" x2="11" y2="19"/><line x1="-11" y1="19" x2="11" y2="-19"/>
  </g>
  <g stroke="#B7D9F5" stroke-width="5" stroke-linecap="round" transform="translate(690 480) rotate(-10) scale(.8)">
    <line x1="-22" y1="0" x2="22" y2="0"/><line x1="-11" y1="-19" x2="11" y2="19"/><line x1="-11" y1="19" x2="11" y2="-19"/>
  </g>
  <circle cx="400" cy="300" r="155" fill="#FFFFFF" opacity=".7"/>
  <g transform="translate(400 300)" stroke="#1B66C2" stroke-width="13" fill="none" stroke-linecap="round" stroke-linejoin="round">
    <path d="M-62 -28 C -32 -62 34 -66 62 -34 C 84 -8 68 30 30 44 C -8 58 -54 46 -66 14 C -72 -2 -72 -16 -62 -28 Z"/>
    <path d="M-32 -10 C -12 -28 20 -26 34 -6"/>
    <path d="M-24 16 C -8 4 14 6 26 18"/>
  </g>
</svg>
