<svg xmlns="http://www.w3.org/2000/svg" viewBox="0 0 800 600">
  <defs>
    <linearGradient id="g" x1="0" y1="0" x2="1" y2="1">
      <stop offset="0" stop-color="#EFF7FE"/>
      <stop offset="1" stop-color="#D6EAFA"/>
    </linearGradient>
  </defs>
  <rect width="800" height="600" fill="url(#g)"/>
  <g stroke="#B7D9F5" stroke-width="6" stroke-linecap="round" transform="translate(120 120) rotate(25)">
    <line x1="-22" y1="0" x2="22" y2="0"/><line x1="-11" y1="-19" x2="11" y2="19"/><line x1="-11" y1="19" x2="11" y2="-19"/>
  </g>
  <g stroke="#B7D9F5" stroke-width="5" stroke-linecap="round" transform="translate(685 470) rotate(-18) scale(.8)">
    <line x1="-22" y1="0" x2="22" y2="0"/><line x1="-11" y1="-19" x2="11" y2="19"/><line x1="-11" y1="19" x2="11" y2="-19"/>
  </g>
  <circle cx="400" cy="300" r="155" fill="#FFFFFF" opacity=".7"/>
  <g transform="translate(400 305)" stroke="#1B66C2" stroke-width="13" fill="none" stroke-linecap="round" stroke-linejoin="round">
    <path d="M-58 -8 L-42 82 L42 82 L58 -8 Z"/>
    <path d="M-30 -14 L-40 -80"/>
    <path d="M0 -14 L0 -92"/>
    <path d="M30 -14 L40 -80"/>
  </g>
</svg>
